<svg width="180" height="180" xmlns="http://www.w3.org/2000/svg" viewBox="0 0 180 180">
  <rect width="180" height="180" fill="#0284c7" rx="40"/>
  <path d="M110.844 27.459a9 9 0 01.57 11.385l-36 108a9 9 0 11-17.082-5.688l36-108a9 9 0 0111.385-.57zm.227-.63zM51.363 56.637a9 9 0 010 12.726L30.726 90l20.637 20.637a9 9 0 11-12.726 12.726l-27-27a9 9 0 010-12.726l27-27a9 9 0 0112.726 0zm77.274 0a9 9 0 0112.726 0l27 27a9 9 0 010 12.726l-27 27a9 9 0 11-12.726-12.726L149.274 90l-20.637-20.637a9 9 0 010-12.726z" fill="white"/>
</svg>
